<?xml version="1.0" encoding="iso-8859-1"?>
<!-- Uploaded to: SVG Repo, www.svgrepo.com, Generator: SVG Repo Mixer Tools -->
<!DOCTYPE svg PUBLIC "-//W3C//DTD SVG 1.1//EN" "http://www.w3.org/Graphics/SVG/1.1/DTD/svg11.dtd">
<svg fill="#000000" height="800px" width="800px" version="1.1" id="Capa_1" xmlns="http://www.w3.org/2000/svg" xmlns:xlink="http://www.w3.org/1999/xlink" 
	 viewBox="0 0 212.366 212.366" xml:space="preserve">
<g>
	<path d="M68.469,54.652h75.878c0.007,0.001,0.015,0.001,0.02,0c4.143,0,7.5-3.357,7.5-7.5c0-0.203-0.008-0.404-0.023-0.604
		c-0.325-24.777-20.582-44.834-45.436-44.834c-25.055,0-45.438,20.383-45.438,45.438C60.969,51.294,64.327,54.652,68.469,54.652z
		 M106.407,16.714c14.196,0,26.155,9.769,29.505,22.937H76.904C80.253,26.484,92.211,16.714,106.407,16.714z"/>
	<path d="M204.866,113.019h-35.441V75.398l28.313-28.312c2.93-2.93,2.93-7.678,0.001-10.606c-2.929-2.929-7.677-2.93-10.607-0.001
		L158.818,64.79H53.983L25.671,36.479c-2.929-2.93-7.678-2.929-10.607-0.001c-2.929,2.93-2.929,7.678,0,10.607l28.311,28.311v37.623
		H7.5c-4.142,0-7.5,3.357-7.5,7.5c0,4.143,3.358,7.5,7.5,7.5h35.881c0.041,12.754,3.894,24.624,10.471,34.539l-35.291,35.29
		c-2.929,2.93-2.929,7.678,0,10.607c1.464,1.464,3.384,2.196,5.303,2.196c1.919,0,3.839-0.732,5.303-2.196l34.433-34.433
		c11.248,10.428,26.289,16.818,42.801,16.818c16.4,0,31.354-6.302,42.577-16.605l34.217,34.219c1.465,1.465,3.384,2.197,5.304,2.197
		c1.919,0,3.839-0.732,5.303-2.196c2.93-2.929,2.93-7.678,0.001-10.607l-35.024-35.025c6.684-9.968,10.601-21.938,10.642-34.805
		h35.446c4.143,0,7.5-3.357,7.5-7.5C212.366,116.376,209.009,113.019,204.866,113.019z M58.376,127.816V79.79h40.525v95.461
		C75.97,171.64,58.376,151.746,58.376,127.816z M113.901,175.251V79.79h40.523v48.025
		C154.425,151.746,136.831,171.64,113.901,175.251z"/>
</g>
</svg>